<svg width="30" height="30" viewBox="0 0 30 30" fill="none" xmlns="http://www.w3.org/2000/svg">
<path d="M6.30284 18.9568C6.30284 20.6914 4.88594 22.1083 3.15142 22.1083C1.41695 22.1083 0 20.6914 0 18.9568C0 17.2224 1.41695 15.8054 3.15142 15.8054H6.30284V18.9568Z" fill="#E01E5A"/>
<path d="M7.89185 18.9568C7.89185 17.2224 9.3088 15.8054 11.0433 15.8054C12.7778 15.8054 14.1947 17.2224 14.1947 18.9568V26.8476C14.1947 28.5821 12.7778 29.999 11.0433 29.999C9.3088 29.999 7.89185 28.5821 7.89185 26.8476V18.9568V18.9568Z" fill="#E01E5A"/>
<path d="M11.0433 6.30284C9.3088 6.30284 7.89185 4.88594 7.89185 3.15142C7.89185 1.41695 9.3088 0 11.0433 0C12.7778 0 14.1947 1.41695 14.1947 3.15142V6.30284H11.0433Z" fill="#36C5F0"/>
<path d="M11.0422 7.88806C12.7767 7.88806 14.1936 9.30501 14.1936 11.0395C14.1936 12.774 12.7767 14.1909 11.0422 14.1909H3.15142C1.41695 14.1909 0 12.774 0 11.0395C0 9.30501 1.41695 7.88806 3.15142 7.88806H11.0422Z" fill="#36C5F0"/>
<path d="M23.6973 11.0395C23.6973 9.30501 25.1142 7.88806 26.8487 7.88806C28.5832 7.88806 30.0001 9.30501 30.0001 11.0395C30.0001 12.774 28.5832 14.1909 26.8487 14.1909H23.6973V11.0395V11.0395Z" fill="#2EB67D"/>
<path d="M22.1083 11.0422C22.1083 12.7767 20.6914 14.1936 18.9568 14.1936C17.2224 14.1936 15.8054 12.7767 15.8054 11.0422V3.15142C15.8054 1.41695 17.2224 0 18.9568 0C20.6914 0 22.1083 1.41695 22.1083 3.15142V11.0422V11.0422Z" fill="#2EB67D"/>
<path d="M18.9568 23.6935C20.6914 23.6935 22.1083 25.1104 22.1083 26.8449C22.1083 28.5794 20.6914 29.9963 18.9568 29.9963C17.2224 29.9963 15.8054 28.5794 15.8054 26.8449V23.6935H18.9568V23.6935Z" fill="#ECB22E"/>
<path d="M18.9568 22.1083C17.2224 22.1083 15.8054 20.6914 15.8054 18.9568C15.8054 17.2224 17.2224 15.8054 18.9568 15.8054H26.8476C28.5821 15.8054 29.999 17.2224 29.999 18.9568C29.999 20.6914 28.5821 22.1083 26.8476 22.1083H18.9568V22.1083Z" fill="#ECB22E"/>
</svg>
