<svg width="128" height="50" viewBox="0 0 128 50" fill="none" xmlns="http://www.w3.org/2000/svg">
<path d="M123 26L128 29V35L123 38L118 35V29L123 26Z" fill="#3EEFD8"/>
<path d="M24.5566 24.9043C24.5566 29.1348 23.3496 32.375 20.9355 34.625C18.5332 36.875 15.0586 38 10.5117 38H3.23438V12.3008H11.3027C15.498 12.3008 18.7559 13.4082 21.0762 15.623C23.3965 17.8379 24.5566 20.9316 24.5566 24.9043ZM18.8965 25.0449C18.8965 19.5254 16.459 16.7656 11.584 16.7656H8.68359V33.5H11.0215C16.2715 33.5 18.8965 30.6816 18.8965 25.0449ZM37.5996 21.793C36.4629 21.793 35.5723 22.1562 34.9277 22.8828C34.2832 23.5977 33.9141 24.6172 33.8203 25.9414H41.3438C41.3203 24.6172 40.9746 23.5977 40.3066 22.8828C39.6387 22.1562 38.7363 21.793 37.5996 21.793ZM38.3555 38.3516C35.1914 38.3516 32.7188 37.4785 30.9375 35.7324C29.1562 33.9863 28.2656 31.5137 28.2656 28.3145C28.2656 25.0215 29.0859 22.4785 30.7266 20.6855C32.3789 18.8809 34.6582 17.9785 37.5645 17.9785C40.3418 17.9785 42.5039 18.7695 44.0508 20.3516C45.5977 21.9336 46.3711 24.1191 46.3711 26.9082V29.5098H33.6973C33.7559 31.0332 34.207 32.2227 35.0508 33.0781C35.8945 33.9336 37.0781 34.3613 38.6016 34.3613C39.7852 34.3613 40.9043 34.2383 41.959 33.9922C43.0137 33.7461 44.1152 33.3535 45.2637 32.8145V36.9629C44.3262 37.4316 43.3242 37.7773 42.2578 38C41.1914 38.2344 39.8906 38.3516 38.3555 38.3516ZM64.4062 38H48.8848V34.8359L57.9902 22.4434H49.4297V18.3477H64.0898V21.8281L55.2305 33.9043H64.4062V38ZM86.4492 38H81.0879V26.5215C81.0879 25.1035 80.8359 24.043 80.332 23.3398C79.8281 22.625 79.0254 22.2676 77.9238 22.2676C76.4238 22.2676 75.3398 22.7715 74.6719 23.7793C74.0039 24.7754 73.6699 26.4336 73.6699 28.7539V38H68.3086V18.3477H72.4043L73.125 20.8613H73.4238C74.0215 19.9121 74.8418 19.1973 75.8848 18.7168C76.9395 18.2246 78.1348 17.9785 79.4707 17.9785C81.7559 17.9785 83.4902 18.5996 84.6738 19.8418C85.8574 21.0723 86.4492 22.8535 86.4492 25.1855V38ZM91.7402 13.2676C91.7402 11.5215 92.7129 10.6484 94.6582 10.6484C96.6035 10.6484 97.5762 11.5215 97.5762 13.2676C97.5762 14.0996 97.3301 14.75 96.8379 15.2188C96.3574 15.6758 95.6309 15.9043 94.6582 15.9043C92.7129 15.9043 91.7402 15.0254 91.7402 13.2676ZM97.3301 38H91.9688V18.3477H97.3301V38ZM111.252 34.0801C112.189 34.0801 113.314 33.875 114.627 33.4648V37.4551C113.291 38.0527 111.65 38.3516 109.705 38.3516C107.561 38.3516 105.996 37.8125 105.012 36.7344C104.039 35.6445 103.553 34.0156 103.553 31.8477V22.373H100.986V20.1055L103.939 18.3125L105.486 14.1641H108.914V18.3477H114.416V22.373H108.914V31.8477C108.914 32.6094 109.125 33.1719 109.547 33.5352C109.98 33.8984 110.549 34.0801 111.252 34.0801Z" fill="#F4F4F4"/>
</svg>
